HIERARCHY
ROOT Hips
{
  OFFSET 5.84602e-005 68.8428 3.50346
  CHANNELS 6 Xposition Yposition Zposition Zrotation Xrotation Yrotation
  JOINT Spine
  {
    OFFSET 0 8.597 -4.6522
    CHANNELS 3 Zrotation Xrotation Yrotation
    JOINT Spine1
    {
      OFFSET 0 7.8454 0.4098
      CHANNELS 3 Zrotation Xrotation Yrotation
      JOINT Spine2
      {
        OFFSET 0 9.7078 -2.1609
        CHANNELS 3 Zrotation Xrotation Yrotation
        JOINT Neck
        {
          OFFSET 0 21.8761 -0.4549
          CHANNELS 3 Zrotation Xrotation Yrotation
          JOINT Head
          {
            OFFSET 0 12.3537 3.3602
            CHANNELS 3 Zrotation Xrotation Yrotation
            End Site
            {
              OFFSET 0.0001 18.9506 0.5657
            }
          }
        }
        JOINT LeftShoulder
        {
          OFFSET 2.2086 21.1115 7.2329
          CHANNELS 3 Zrotation Xrotation Yrotation
          JOINT LeftArm
          {
            OFFSET 13.1193 3.0282 -4.8998
            CHANNELS 3 Zrotation Xrotation Yrotation
            JOINT LeftForeArm
            {
              OFFSET 27.4081 -0.0973053 -0.2375
              CHANNELS 3 Zrotation Xrotation Yrotation
              JOINT LeftHand
              {
                OFFSET 22.8641 0.0662994 -0.1369
                CHANNELS 3 Zrotation Xrotation Yrotation
                JOINT LeftHandIndex1
                {
                  OFFSET 8.8614 0.775009 2.4612
                  CHANNELS 3 Zrotation Xrotation Yrotation
                  JOINT LeftHandIndex2
                  {
                    OFFSET 3.3146 -0.808304 0.5841
                    CHANNELS 3 Zrotation Xrotation Yrotation
                    JOINT LeftHandIndex3
                    {
                      OFFSET 2.2628 -0.552002 0.3989
                      CHANNELS 3 Zrotation Xrotation Yrotation
                      End Site
                      {
                        OFFSET 1.6102 -0.4807 0.2612
                      }
                    }
                  }
                }
                JOINT LeftHandMiddle1
                {
                  OFFSET 8.9937 0.895004 0.2143
                  CHANNELS 3 Zrotation Xrotation Yrotation
                  JOINT LeftHandMiddle2
                  {
                    OFFSET 4.0984 0.0113983 -0.0242
                    CHANNELS 3 Zrotation Xrotation Yrotation
                    JOINT LeftHandMiddle3
                    {
                      OFFSET 2.2716 0.00689697 -0.0138001
                      CHANNELS 3 Zrotation Xrotation Yrotation
                      End Site
                      {
                        OFFSET 2.0404 -0.1441 0.0027
                      }
                    }
                  }
                }
                JOINT LeftHandRing1
                {
                  OFFSET 8.5234 0.597198 -2.0164
                  CHANNELS 3 Zrotation Xrotation Yrotation
                  JOINT LeftHandRing2
                  {
                    OFFSET 3.7188 -0.188293 -0.2328
                    CHANNELS 3 Zrotation Xrotation Yrotation
                    JOINT LeftHandRing3
                    {
                      OFFSET 2.1191 -0.106598 -0.1332
                      CHANNELS 3 Zrotation Xrotation Yrotation
                      End Site
                      {
                        OFFSET 1.8737 -0.2304 -0.0886
                      }
                    }
                  }
                }
                JOINT LeftHandPinky1
                {
                  OFFSET 7.9094 -0.601089 -3.4825
                  CHANNELS 3 Zrotation Xrotation Yrotation
                  JOINT LeftHandPinky2
                  {
                    OFFSET 2.2874 -0.477005 -0.6314
                    CHANNELS 3 Zrotation Xrotation Yrotation
                    JOINT LeftHandPinky3
                    {
                      OFFSET 1.6774 -0.349396 -0.4633
                      CHANNELS 3 Zrotation Xrotation Yrotation
                      End Site
                      {
                        OFFSET 1.4888 -0.4091 -0.3416
                      }
                    }
                  }
                }
                JOINT LeftHandThumb1
                {
                  OFFSET 1.833 -1.3875 1.3896
                  CHANNELS 3 Zrotation Xrotation Yrotation
                  JOINT LeftHandThumb2
                  {
                    OFFSET 3.4129 -1.121 2.5732
                    CHANNELS 3 Zrotation Xrotation Yrotation
                    JOINT LeftHandThumb3
                    {
                      OFFSET 2.2474 -0.804199 1.6192
                      CHANNELS 3 Zrotation Xrotation Yrotation
                      End Site
                      {
                        OFFSET 1.6527 -0.5689 1.1317
                      }
                    }
                  }
                }
              }
            }
          }
        }
        JOINT RightShoulder
        {
          OFFSET -2.2086 21.1115 7.2329
          CHANNELS 3 Zrotation Xrotation Yrotation
          JOINT RightArm
          {
            OFFSET -13.1216 3.0287 -4.9007
            CHANNELS 3 Zrotation Xrotation Yrotation
            JOINT RightForeArm
            {
              OFFSET -27.4081 -0.0973053 -0.2375
              CHANNELS 3 Zrotation Xrotation Yrotation
              JOINT RightHand
              {
                OFFSET -22.8641 0.0664063 -0.1369
                CHANNELS 3 Zrotation Xrotation Yrotation
                JOINT RightHandIndex1
                {
                  OFFSET -8.8614 0.774994 2.4612
                  CHANNELS 3 Zrotation Xrotation Yrotation
                  JOINT RightHandIndex2
                  {
                    OFFSET -3.3146 -0.808304 0.5841
                    CHANNELS 3 Zrotation Xrotation Yrotation
                    JOINT RightHandIndex3
                    {
                      OFFSET -2.2628 -0.552002 0.3989
                      CHANNELS 3 Zrotation Xrotation Yrotation
                      End Site
                      {
                        OFFSET -1.6102 -0.4807 0.2612
                      }
                    }
                  }
                }
                JOINT RightHandMiddle1
                {
                  OFFSET -8.9937 0.894989 0.2143
                  CHANNELS 3 Zrotation Xrotation Yrotation
                  JOINT RightHandMiddle2
                  {
                    OFFSET -4.0984 0.0113983 -0.0242
                    CHANNELS 3 Zrotation Xrotation Yrotation
                    JOINT RightHandMiddle3
                    {
                      OFFSET -2.2716 0.00691223 -0.0138001
                      CHANNELS 3 Zrotation Xrotation Yrotation
                      End Site
                      {
                        OFFSET -2.0404 -0.1441 0.0027
                      }
                    }
                  }
                }
                JOINT RightHandRing1
                {
                  OFFSET -8.5234 0.597198 -2.0164
                  CHANNELS 3 Zrotation Xrotation Yrotation
                  JOINT RightHandRing2
                  {
                    OFFSET -3.7188 -0.188309 -0.2328
                    CHANNELS 3 Zrotation Xrotation Yrotation
                    JOINT RightHandRing3
                    {
                      OFFSET -2.1191 -0.106598 -0.1332
                      CHANNELS 3 Zrotation Xrotation Yrotation
                      End Site
                      {
                        OFFSET -1.8737 -0.2304 -0.0886
                      }
                    }
                  }
                }
                JOINT RightHandPinky1
                {
                  OFFSET -7.9094 -0.601105 -3.4825
                  CHANNELS 3 Zrotation Xrotation Yrotation
                  JOINT RightHandPinky2
                  {
                    OFFSET -2.2874 -0.477005 -0.6314
                    CHANNELS 3 Zrotation Xrotation Yrotation
                    JOINT RightHandPinky3
                    {
                      OFFSET -1.6774 -0.349396 -0.4633
                      CHANNELS 3 Zrotation Xrotation Yrotation
                      End Site
                      {
                        OFFSET -1.4888 -0.4091 -0.3416
                      }
                    }
                  }
                }
                JOINT RightHandThumb1
                {
                  OFFSET -1.833 -1.38751 1.3896
                  CHANNELS 3 Zrotation Xrotation Yrotation
                  JOINT RightHandThumb2
                  {
                    OFFSET -3.41299 -1.12099 2.5732
                    CHANNELS 3 Zrotation Xrotation Yrotation
                    JOINT RightHandThumb3
                    {
                      OFFSET -2.24741 -0.804108 1.6192
                      CHANNELS 3 Zrotation Xrotation Yrotation
                      End Site
                      {
                        OFFSET -1.6527 -0.5689 1.1317
                      }
                    }
                  }
                }
              }
            }
          }
        }
      }
    }
  }
  JOINT RightUpLeg
  {
    OFFSET -9.1966 3.8861 -0.7581
    CHANNELS 3 Zrotation Xrotation Yrotation
    JOINT RightLeg
    {
      OFFSET -0.7359 -41.0265 0
      CHANNELS 3 Zrotation Xrotation Yrotation
      JOINT RightFoot
      {
        OFFSET 0 -40.2855 0
        CHANNELS 3 Zrotation Xrotation Yrotation
        JOINT RightToeBase
        {
          OFFSET 0 -5.6122 11.7359
          CHANNELS 3 Zrotation Xrotation Yrotation
          End Site
          {
            OFFSET 0 0 7.8731
          }
        }
      }
    }
  }
  JOINT LeftUpLeg
  {
    OFFSET 9.1965 3.8864 -0.7581
    CHANNELS 3 Zrotation Xrotation Yrotation
    JOINT LeftLeg
    {
      OFFSET 0.7359 -41.0268 0
      CHANNELS 3 Zrotation Xrotation Yrotation
      JOINT LeftFoot
      {
        OFFSET 0 -40.2855 0
        CHANNELS 3 Zrotation Xrotation Yrotation
        JOINT LeftToeBase
        {
          OFFSET 0 -5.6122 11.7359
          CHANNELS 3 Zrotation Xrotation Yrotation
          End Site
          {
            OFFSET 0 0 7.8731
          }
        }
      }
    }
  }
}
MOTION
Frames:	5
Frame Time:	0.0333333
5.84602e-005 68.8428 3.50346 0 0 -0 0 0 -0 0 0 -0 0 0 -0 0 0 -0 0 0 -0 0 0 -0 0 0 -0 0 0 -0 0 0 -0 0 0 -0 0 0 -0 0 0 -0 0 0 -0 -0.0146107 -8.87603e-005 -2.63497e-007 2.99804e-018 -2.42657e-020 -1.42182e-022 0 0 -0 -0.0187562 -0.001176 5.858e-005 5.06224e-018 3.88251e-019 1.21329e-020 0 0 -0 -0.012269 -0.00324817 0.000675346 -1.74678e-018 3.88251e-019 -0 0 0 -0 0 0 -0 0 0 -0 0 0 -0 0 0 -0 0 0 -0 0 0 -0 0 0 -0 0 0 -0 0 0 -0 0 0 -0 0.0149955 -9.10982e-005 2.64101e-007 -9.69331e-018 1.21329e-020 -4.7394e-023 0 0 -0 0.0189956 -0.00119102 -5.96516e-005 -5.41541e-019 0 2.42657e-020 0 0 -0 0.0122698 -0.00324857 -0.000673756 -2.00796e-019 0 -1.94126e-019 0 0 -0 0 0 -0 0 0 -0 3.39842 1.33031 -0.0637918 -5.65207e-008 0.834868 -0.000436188 -3.39935 -2.16518 -0.0642563 -8.89002e-024 -1.18485e-023 -1.48106e-024 -3.39844 1.35642 0.0640283 -3.18788e-007 0.782166 -0.000588827 3.39931 -2.13858 0.0634662 1.1399e-023 0 -0 
3.26028 32.1704 29.131 0.0207104 0.0195393 133.333 1.37761 6.13522 -0.707596 2.85656 12.251 -1.5779 2.85655 12.251 -1.5779 -14.9801 12.4887 4.78062 3.42155e-006 -33.3359 5.36627e-006 -2.0377 -35.9725 24.4405 -47.6416 6.47347 -26.7892 39.3155 1.55523 -87.6435 -2.23291 -19.4127 -0.421939 7.15625e-015 3.97569e-015 -0 -7.95139e-016 -7.95139e-016 3.18055e-015 -7.95139e-016 3.18055e-015 6.36111e-015 7.15625e-015 3.97569e-015 -0 -0.0147022 -8.97312e-005 -4.21359e-006 -3.18055e-015 -4.77083e-015 6.36111e-015 7.15625e-015 3.97569e-015 -0 -0.0188105 -0.00117815 5.14741e-005 2.75077e-007 -1.42553e-007 -1.29116e-006 7.15625e-015 3.97569e-015 -0 -0.0122446 -0.00324272 0.00066993 2.7422e-007 -1.42367e-007 -1.29123e-006 7.15625e-015 3.97569e-015 -0 -7.95139e-016 -7.95139e-016 3.18055e-015 -7.95139e-016 3.18055e-015 6.36111e-015 32.1957 -48.2528 -3.38533 22.015 14.3717 -11.5005 35.739 21.484 -0.157068 6.19126 -40.295 34.9708 -2.48481e-016 0 -5.10939e-015 1.49089e-016 7.95139e-016 1.26104e-015 -4.96962e-016 7.95139e-016 -1.92573e-015 -2.48481e-016 0 -5.10939e-015 0.0149715 -8.70401e-005 -2.36237e-006 3.86217e-032 -7.95139e-016 2.78299e-015 -2.48481e-016 0 -5.10939e-015 0.0190303 -0.00119013 -5.75146e-005 -1.98785e-016 0 1.22066e-015 -2.48481e-016 0 -5.10939e-015 0.0122699 -0.00324891 -0.000677989 2.48481e-016 0 1.42255e-015 -2.48481e-016 0 -5.10939e-015 1.49089e-016 7.95139e-016 1.26104e-015 -4.96962e-016 7.95139e-016 -1.92573e-015 -1.0894 0.237043 -2.44121 -13.0934 74.4119 11.4984 -8.83223 39.0502 -1.16614 -4.44867e-006 7.86332e-008 -1.06419e-006 2.57438 -1.18816 2.49203 11.4322 73.7265 -10.5239 9.67969 38.613 0.533008 1.88493e-007 2.06832e-006 7.26769e-007 
-0.405702 15.6155 42.2201 0.0229786 -0.0969541 -166.667 2.11644 8.78621 -0.904621 4.45469 17.5309 -2.18057 4.45469 17.5309 -2.18057 -22.5307 18.7702 7.41532 -4.60852e-006 -48.3371 -3.51103e-006 9.74456 -46.4206 43.2583 -67.2095 8.19351 -39.0499 50.9401 -26.2339 -115.874 -3.38288 -27.8517 -0.974183 -1.20789e-006 -1.96573e-007 4.64529e-007 -3.38156e-006 -3.42971e-006 1.41854e-007 -1.20789e-006 -1.96573e-007 4.64529e-007 -1.20789e-006 -1.96573e-007 4.64529e-007 -0.0145786 -9.29487e-005 -1.25927e-007 -3.0342e-006 -9.37615e-007 -4.20233e-007 -1.20789e-006 -1.96573e-007 4.64529e-007 -0.0187476 -0.00117088 5.96038e-005 -3.03396e-006 -9.37533e-007 -4.20243e-007 -1.20789e-006 -1.96573e-007 4.64529e-007 -0.0122833 -0.00325302 0.000674084 -1.20884e-006 -1.9687e-007 4.64595e-007 -1.20789e-006 -1.96573e-007 4.64529e-007 -3.38156e-006 -3.42971e-006 1.41854e-007 -1.20789e-006 -1.96573e-007 4.64529e-007 40.6021 -69.7362 -10.3992 33.6227 20.4444 -17.4824 45.0385 45.4524 -0.330866 28.9104 -45.9637 62.6044 -3.40712e-006 3.73412e-007 -2.1726e-007 4.59074e-006 -6.29072e-007 1.57622e-006 -3.83031e-006 1.85613e-006 -1.8295e-006 -3.40712e-006 3.73412e-007 -2.1726e-007 0.0149673 -8.97984e-005 1.53114e-006 -3.8292e-006 1.85588e-006 -1.82974e-006 -3.40712e-006 3.73412e-007 -2.1726e-007 0.0190154 -0.00119115 -6.37127e-005 -3.82892e-006 1.85574e-006 -1.82978e-006 -3.40712e-006 3.73412e-007 -2.1726e-007 0.0122303 -0.00323684 -0.000673324 -3.82947e-006 1.85567e-006 -1.82964e-006 -3.40712e-006 3.73412e-007 -2.1726e-007 4.59074e-006 -6.29072e-007 1.57622e-006 -3.83031e-006 1.85613e-006 -1.8295e-006 -2.95747 -0.188521 -4.35536 -162.22 72.7051 157.945 -9.53539 59.0389 -3.27213 -5.7656e-008 2.38372e-009 1.83343e-008 5.11771 -2.26517 4.34649 160.77 73.6805 -157.55 11.4258 58.3816 1.8357 -3.18358e-008 5.09883e-006 -6.16518e-007 
0.506202 19.4161 39.0885 -7.06377e-015 -0.384308 180 1.94788 7.93163 -0.844146 4.0741 15.8284 -1.99204 4.0741 15.8284 -1.99204 -21.0058 19.0091 7.46313 -1.14079e-006 -45.0035 2.37109e-006 4.94512 -43.6794 37.1272 -62.9411 7.9067 -36.3159 49.8531 -18.7847 -109.808 -3.16433 -25.3182 -1.53843 9.54166e-015 3.18055e-015 -9.54166e-015 1.59028e-014 -3.18055e-015 -3.18055e-015 6.36111e-015 -3.18055e-015 -6.36111e-015 9.54166e-015 3.18055e-015 -9.54166e-015 -0.0145231 -8.68288e-005 -1.42582e-006 3.18055e-015 -9.54166e-015 3.18055e-015 9.54166e-015 3.18055e-015 -9.54166e-015 -0.0188771 -0.00118391 5.92822e-005 -9.54166e-015 6.36111e-015 -3.18055e-015 9.54166e-015 3.18055e-015 -9.54166e-015 -0.0122241 -0.00323687 0.00067057 -3.18055e-015 6.36111e-015 -0 9.54166e-015 3.18055e-015 -9.54166e-015 1.59028e-014 -3.18055e-015 -3.18055e-015 6.36111e-015 -3.18055e-015 -6.36111e-015 38.3653 -64.9207 -9.4552 30.2895 19.3082 -16.5976 43.6228 39.3254 -0.261429 24.5532 -44.1389 56.08 4.5416e-008 -2.04545e-006 9.8917e-006 -1.13418e-006 1.13035e-006 -9.41187e-007 -2.08322e-006 -2.52903e-006 1.07161e-005 4.5416e-008 -2.04545e-006 9.8917e-006 0.0149786 -8.97648e-005 6.10374e-006 4.56476e-008 -2.04416e-006 9.89197e-006 4.5416e-008 -2.04545e-006 9.8917e-006 0.0190149 -0.00118928 -5.44285e-005 4.58039e-008 -2.04383e-006 9.89204e-006 4.5416e-008 -2.04545e-006 9.8917e-006 0.0123087 -0.0032633 -0.000670025 -2.08401e-006 -2.52759e-006 1.07165e-005 4.5416e-008 -2.04545e-006 9.8917e-006 -1.13418e-006 1.13035e-006 -9.41187e-007 -2.08322e-006 -2.52903e-006 1.07161e-005 -2.53877 -0.55184 -3.83536 -152.292 79.2902 148.759 -9.64236 54.5069 -2.55322 -2.34373e-007 1.94051e-006 -9.30542e-008 4.5398 -2.47835 3.85444 149.704 80.1746 -147.136 11.2055 53.8984 1.38438 -4.09695e-007 5.52139e-008 1.06071e-007 
0.506218 19.5132 39.2054 -7.09516e-015 -0.640533 180 1.94841 7.7142 -0.825608 4.06588 15.3944 -1.94497 4.06588 15.3944 -1.94497 -21.1896 20.3423 8.00953 -1.31825e-006 -45.0035 2.10202e-006 3.87765 -42.8946 36.0781 -62.941 7.90669 -36.3159 49.9785 -18.5134 -109.503 -3.2012 -24.7786 -2.1044 -4.27787e-006 2.63303e-007 3.59063e-008 -3.18055e-015 0 3.18055e-015 -3.5476e-006 7.48023e-008 -5.68491e-008 -4.27787e-006 2.63303e-007 3.59063e-008 -0.0145966 -9.01094e-005 -4.24369e-006 -3.54778e-006 7.48082e-008 -5.68369e-008 -4.27787e-006 2.63303e-007 3.59063e-008 -0.0187523 -0.00117516 6.40667e-005 -3.54783e-006 7.47991e-008 -5.67997e-008 -4.27787e-006 2.63303e-007 3.59063e-008 -0.012243 -0.00324099 0.000675992 -3.54775e-006 7.47895e-008 -5.67325e-008 -4.27787e-006 2.63303e-007 3.59063e-008 -3.18055e-015 0 3.18055e-015 -3.5476e-006 7.48023e-008 -5.68491e-008 37.1892 -64.8362 -10.7988 29.7701 19.4517 -17.0016 43.6229 39.3254 -0.261443 25.622 -42.7874 55.9584 -9.08009e-007 -1.18735e-006 -7.59162e-007 9.08009e-007 1.18735e-006 7.59162e-007 -9.08009e-007 -1.18735e-006 -7.59162e-007 -9.08009e-007 -1.18735e-006 -7.59162e-007 0.0149602 -9.01138e-005 2.93042e-006 -9.08052e-007 -1.18745e-006 -7.59006e-007 -9.08009e-007 -1.18735e-006 -7.59162e-007 0.0190084 -0.00118684 -6.34054e-005 -9.0807e-007 -1.18747e-006 -7.58955e-007 -9.08009e-007 -1.18735e-006 -7.59162e-007 0.0122584 -0.0032442 -0.000674636 -9.08059e-007 -1.18742e-006 -7.59007e-007 -9.08009e-007 -1.18735e-006 -7.59162e-007 9.08009e-007 1.18735e-006 7.59162e-007 -9.08009e-007 -1.18735e-006 -7.59162e-007 -2.5269 -0.957357 -3.84212 -152.295 79.2891 148.762 -9.64201 54.5056 -2.55358 1.89619e-007 1.4656e-008 8.25475e-007 4.52157 -2.87776 3.86404 149.708 80.1732 -147.141 11.2052 53.8973 1.38472 -1.46705e-006 1.55423e-007 -3.11655e-006 
